<svg width="1400" height="520" viewBox="0 0 1400 520" fill="none" xmlns="http://www.w3.org/2000/svg">
<rect width="1400" height="520" rx="12" fill="#F7F7F7"/>
<rect x="16" y="16" width="1368" height="488" rx="10" stroke="#111111" stroke-width="6"/>
<text x="26" y="48" fill="#111111" font-size="20" font-family="Inter, Arial, sans-serif">Управляющий ОТК/ПЗ</text>
<text x="26" y="170" fill="#111111" font-size="20" font-family="Inter, Arial, sans-serif">Приемщик</text>
<text x="26" y="310" fill="#111111" font-size="20" font-family="Inter, Arial, sans-serif">TG бот</text>
<text x="26" y="440" fill="#111111" font-size="20" font-family="Inter, Arial, sans-serif">Open AI</text>
<line x1="0" y1="136" x2="1400" y2="136" stroke="#999" stroke-width="2" stroke-dasharray="6 6"/>
<line x1="0" y1="270" x2="1400" y2="270" stroke="#999" stroke-width="2" stroke-dasharray="6 6"/>
<line x1="0" y1="400" x2="1400" y2="400" stroke="#999" stroke-width="2" stroke-dasharray="6 6"/>
<rect x="220" y="80" width="150" height="90" rx="12" fill="#fff" stroke="#111" stroke-width="3"/>
<text x="230" y="118" fill="#111" font-size="16" font-family="Inter, Arial, sans-serif">Запускает процесс</text>
<text x="230" y="138" fill="#111" font-size="16" font-family="Inter, Arial, sans-serif">приемки изделий</text>
<rect x="460" y="220" width="150" height="90" rx="12" fill="#fff" stroke="#111" stroke-width="3"/>
<text x="470" y="258" fill="#111" font-size="16" font-family="Inter, Arial, sans-serif">Принимает</text>
<text x="470" y="278" fill="#111" font-size="16" font-family="Inter, Arial, sans-serif">чертеж</text>
<rect x="700" y="220" width="170" height="90" rx="12" fill="#fff" stroke="#111" stroke-width="3"/>
<text x="710" y="258" fill="#111" font-size="16" font-family="Inter, Arial, sans-serif">Загружает в</text>
<text x="710" y="278" fill="#111" font-size="16" font-family="Inter, Arial, sans-serif">TG бота</text>
<rect x="980" y="220" width="150" height="90" rx="12" fill="#fff" stroke="#111" stroke-width="3"/>
<text x="990" y="258" fill="#111" font-size="16" font-family="Inter, Arial, sans-serif">Получает</text>
<text x="990" y="278" fill="#111" font-size="16" font-family="Inter, Arial, sans-serif">готовые файлы</text>
<rect x="1220" y="220" width="130" height="90" rx="12" fill="#fff" stroke="#111" stroke-width="3"/>
<text x="1230" y="268" fill="#111" font-size="16" font-family="Inter, Arial, sans-serif">Процесс</text>
<text x="1230" y="288" fill="#111" font-size="16" font-family="Inter, Arial, sans-serif">завершен</text>
<line x1="180" y1="125" x2="220" y2="125" stroke="#111" stroke-width="3" marker-end="url(#arrow)"/>
<text x="80" y="120" fill="#111" font-size="16" font-family="Inter, Arial, sans-serif">Чертеж получен</text>
<line x1="370" y1="270" x2="460" y2="270" stroke="#111" stroke-width="3" marker-end="url(#arrow)"/>
<line x1="610" y1="270" x2="700" y2="270" stroke="#111" stroke-width="3" marker-end="url(#arrow)"/>
<line x1="870" y1="270" x2="980" y2="270" stroke="#111" stroke-width="3" marker-end="url(#arrow)"/>
<line x1="1130" y1="270" x2="1220" y2="270" stroke="#111" stroke-width="3" marker-end="url(#arrow)"/>
<rect x="520" y="310" width="60" height="70" rx="6" fill="#fff" stroke="#111" stroke-width="3"/>
<text x="525" y="352" fill="#111" font-size="14" font-family="Inter, Arial, sans-serif">Шаблон</text>
<rect x="620" y="310" width="80" height="70" rx="6" fill="#fff" stroke="#111" stroke-width="3"/>
<text x="630" y="352" fill="#111" font-size="14" font-family="Inter, Arial, sans-serif">База</text>
<line x1="580" y1="330" x2="580" y2="300" stroke="#111" stroke-width="2" stroke-dasharray="5 5"/>
<line x1="660" y1="330" x2="660" y2="300" stroke="#111" stroke-width="2" stroke-dasharray="5 5"/>
<rect x="520" y="440" width="180" height="50" rx="8" fill="#fff" stroke="#111" stroke-width="3"/>
<text x="528" y="470" fill="#111" font-size="14" font-family="Inter, Arial, sans-serif">Отправляет заполненные</text>
<text x="528" y="488" fill="#111" font-size="14" font-family="Inter, Arial, sans-serif">накладные в формате печати</text>
<defs>
<marker id="arrow" markerWidth="10" markerHeight="10" refX="6" refY="3" orient="auto" markerUnits="strokeWidth">
<path d="M0,0 L0,6 L6,3 z" fill="#111"/>
</marker>
</defs>
</svg>
